<?xml version="1.0" encoding="utf-8"?>
<!-- Generator: Adobe Illustrator 18.0.0, SVG Export Plug-In . SVG Version: 6.00 Build 0)  -->
<!DOCTYPE svg PUBLIC "-//W3C//DTD SVG 1.1//EN" "http://www.w3.org/Graphics/SVG/1.1/DTD/svg11.dtd">
<svg version="1.1" id="Layer_1" xmlns="http://www.w3.org/2000/svg" xmlns:xlink="http://www.w3.org/1999/xlink" x="0px" y="0px"
	 viewBox="0 0 270 54" enable-background="new 0 0 270 54" xml:space="preserve">
<g>
	<path fill="#66473D" d="M1.3,42.7C0.4,41.9,0,40.5,0,38.9c0-1.3,0.4-2.9,1.3-4.7c-0.7-1.2-1.1-2.8-1.1-4.5
		c0-5.9,5.1-12.6,11.3-17.8c-0.2-0.6-0.3-1.2-0.3-1.8c0-3.4,3.4-6.3,6-6.9c0,0.3-0.1,0.4-0.2,0.6c-0.4,0.4-1.3,0.7-2.6,2
		c-1.3,1.3-2.2,2.9-2.2,4.4c0,0.3,0.1,0.7,0.1,1.1c6.6-5.4,14.1-9.1,18.6-9.1c2.1,0,3.4,1.1,3.4,3c0,5.4-7.8,10.8-14.7,10.8
		c-2.8,0-4.9-0.7-6.3-1.7C7.1,19.6,1.7,25.8,1.7,30.8c0,0.8,0.1,1.5,0.3,2.2c1.1-1.9,2.6-3.9,4.6-5.9c2.3-2.3,7.1-5.8,10.9-5.8
		c2.8,0,4,1.4,4,4c0,5.1-7.3,12-14.5,12c-1.4,0-2.7-0.4-3.7-1c-0.4,1.3-0.6,2.3-0.6,2.7c0,1.8,0.4,3.2,1,3.7
		c0.4,0.4,0.7,0.4,1.5,0.2c0.1,0.1,0.1,0.2-0.1,0.4C4.6,43.8,2.6,43.9,1.3,42.7z M20.3,24.9c0-1.3-0.3-2.9-2.4-2.9
		c-3,0-6.3,2.4-9.3,5.5c-2.6,2.6-4.1,5.5-4.9,7.8C4.4,35.8,5.3,36,6.3,36C12.7,36,20.3,29.5,20.3,24.9z M33.4,5.2
		c0-1.1-0.5-2.1-1.7-2.1c-2.3,0-10.5,4.6-17.7,10.7c1.2,0.9,3,1.4,5.6,1.4C25.3,15.2,33.4,9.6,33.4,5.2z"/>
	<path fill="#66473D" d="M30.9,34.7c-0.5-0.5-0.7-1.2-0.7-2.1c0-0.5,0.2-1.1,0.5-1.8c-2.5,2.3-5.6,4.4-6.8,4.4
		c-1.4,0-2.3-1.1-2.3-3.3c0-4.1,7.7-12.1,12.4-12.1c1.9,0.7,2.4,1.5,2.4,2.3c0,0.2,0,0.5-0.1,0.8c0.7-1,1.2-1.8,1.3-2.3
		c1.3,0.5,1.3,1.4,1.3,2.1c0,1.8-7.1,9-6.9,11.7c2.7,0,8.5-5.4,10.6-8c0.1,0.1,0.2,0.2,0.2,0.3c0,1.1-7.8,8.6-10.6,8.6
		C31.7,35.2,31.3,35.1,30.9,34.7z M35.4,21.1c-3.4,0.4-11.9,8.9-12.2,12.8c0.1,0.3,0.3,0.4,0.7,0.4c1.1,0,4.3-2.2,6.7-4.6
		c0.8-0.8,1.8-2,2.9-3.3c1.1-1.3,2.1-2.9,2.1-4.3C35.6,21.5,35.6,21.4,35.4,21.1z"/>
	<path fill="#66473D" d="M59.7,26.3c0.1,0.1,0.2,0.2,0.2,0.3c0,1.1-7.8,8.6-10.6,8.6c-0.4,0-0.8-0.2-1.2-0.6
		c-0.6-0.6-0.8-1.4-0.8-2.2c0-3.5,8.9-10.3,8.1-11.9c0,0-0.4-0.1-0.6-0.1c-1.4,0-4.6,2.4-8.4,6.4c-2.5,2.6-5.1,5.6-7.3,8.5
		c-0.9,0-1.5-1.1-1.5-2.2c0-1.7,7.1-9.6,8.1-12.8c1.3,0.5,1.3,1.4,1.3,2.1c0,1.1-1.4,3.3-3.1,5.6l0.1,0.2c0.6-0.7,1.3-1.4,2-2.1
		c3.8-4,6.8-6.4,8.7-6.4c1,0,2,0.8,2,2.2c0,3.7-7.5,10.2-7.4,12.3C51.8,34.3,57.7,28.9,59.7,26.3z"/>
	<path fill="#66473D" d="M41.2,48.4c0-1.6,0.5-2.6,1.8-3.9c0.6-0.6,1.7-1.2,2.2-1.2c0.6,0,0.9,0.2,0.9,0.4c0,0.3-0.3,0.7-0.5,0.8
		c-0.9,0.9-2.6,3.7-2.6,4.8c0.3,1.5,0.8,1.9,2.1,1.9c4.1,0,11.9-9.4,16.4-16c1.3-1.9,2.4-3.5,3.3-4.9c-2.3,2.3-5.2,4.8-6.8,4.8
		c-0.4,0-0.8-0.2-1.2-0.6c-0.6-0.6-0.8-1.4-0.8-2.2c0-3.3,3.6-6.4,7.7-12.3c1.3,0.5,1.3,1.4,1.3,2.1c0,2.1-6.7,8.7-7,12.1
		c2.6,0,7.7-5.4,9.7-8c2.7-4,3.4-5,3.8-5.9c1.4,0.5,1.4,1.4,1.4,2.1c0,1.1-1.3,2.5-10.9,16.4c-3.4,4.9-10.5,13.4-16.2,13.4
		C42.8,52.4,41.2,50.1,41.2,48.4z"/>
	<path fill="#66473D" d="M84.8,22c0,2.4-2.4,6.3-5.2,9.1c-2.4,2.4-4.9,4.2-6.3,4.2c-1.2,0-2.2-1.3-2.2-3.2c0-4.4,6.4-12.2,11.2-12.3
		C84.3,20.4,84.8,21.2,84.8,22z M84,22c0-0.5-0.1-0.8-0.3-1c-3.2,0.4-10.6,9.2-10.8,12.9c0.1,0.2,0.3,0.3,0.6,0.3
		c1.4,0,3.5-1.6,5.7-3.8C81.6,27.9,84,24.1,84,22z"/>
	<path fill="#66473D" d="M103.7,26.3c0.1,0.1,0.2,0.2,0.2,0.3c0,1.1-7.8,8.6-10.6,8.6c-0.4,0-0.8-0.2-1.2-0.6
		c-0.6-0.6-0.8-1.4-0.8-2.2c0-3.5,8.9-10.3,8.1-11.9c0,0-0.4-0.1-0.6-0.1c-1.4,0-4.6,2.4-8.4,6.4c-2.5,2.6-5.1,5.6-7.3,8.5
		c-0.9,0-1.5-1.1-1.5-2.2c0-1.7,7.1-9.6,8.1-12.8c1.3,0.5,1.3,1.4,1.3,2.1c0,1.1-1.4,3.3-3.1,5.6l0.1,0.2c0.6-0.7,1.3-1.4,2-2.1
		c3.8-4,6.8-6.4,8.7-6.4c1,0,2,0.8,2,2.2c0,3.7-7.5,10.2-7.4,12.3C95.8,34.3,101.6,28.9,103.7,26.3z"/>
	<path fill="#66473D" d="M109.2,34.4c-0.4-0.4-0.9-1.3-0.9-2.3c0-0.8,0.3-1.8,0.7-2.7c-2.3,2.5-5.9,5.8-7.5,5.8
		c-0.4,0-0.8-0.2-1.2-0.6c-0.6-0.6-0.8-1.4-0.8-2.2c0-3.3,3.6-6.4,7.7-12.3c1.2,0.5,1.2,1.4,1.2,2.1c0,1.8-6.6,8.4-6.9,12.1
		c2.3,0,7.4-5.4,9.4-8c1.7-2.4,3.6-4.7,3.8-6.2c1,0.5,1.2,1.4,1.2,2.1c0,2.2-5.9,9.5-5.4,11.7c0.1,0.1,0.3,0.2,0.6,0.2
		c0.8,0,3.3-1.4,6.2-4.3c2.7-2.7,3.7-4.6,3.7-7c0-1.2-0.6-1.7-1.2-1.7c-0.5,0-1.1,0.2-1.5,0.9c-0.1,0-0.2-0.1-0.2-0.2
		c0-0.7,1.8-3,3.1-3s2,1.1,2,2.8c0,2.5-2.7,5.9-5.4,8.6c-2.6,2.6-5.3,4.9-6.9,4.9C110.5,35.2,109.8,35.1,109.2,34.4z"/>
	<path fill="#66473D" d="M134.6,22c0,2.4-2.4,6.3-5.2,9.1c-2.4,2.4-4.9,4.2-6.3,4.2c-1.2,0-2.2-1.3-2.2-3.2
		c0-4.4,6.4-12.2,11.2-12.3C134.1,20.4,134.6,21.2,134.6,22z M133.8,22c0-0.5-0.1-0.8-0.3-1c-3.2,0.4-10.6,9.2-10.8,12.9
		c0.1,0.2,0.3,0.3,0.6,0.3c1.4,0,3.5-1.6,5.7-3.8C131.4,27.9,133.8,24.1,133.8,22z"/>
	<path fill="#66473D" d="M146.3,22c0,2.4-2.4,6.3-5.2,9.1c-2.4,2.4-4.9,4.2-6.3,4.2c-1.2,0-2.2-1.3-2.2-3.2
		c0-4.4,6.4-12.2,11.2-12.3C145.8,20.4,146.3,21.2,146.3,22z M145.4,22c0-0.5-0.1-0.8-0.3-1c-3.2,0.4-10.6,9.2-10.8,12.9
		c0.1,0.2,0.3,0.3,0.6,0.3c1.4,0,3.5-1.6,5.7-3.8C143,27.9,145.4,24.1,145.4,22z"/>
	<path fill="#66473D" d="M153.8,34.7c-0.5-0.5-0.8-1.2-0.8-1.9c0-0.8,0.2-1.7,0.8-2.7l-0.2,0.2c-2.6,2.5-6,4.9-7.2,4.9
		c-1.4,0-2.3-1.2-2.3-3c0-4.3,8.2-12.3,12.7-12.4c1.9,0.7,2.4,1.5,2.4,2.2c0,0.2,0,0.3-0.1,0.5c4.9-6.4,12.7-16.2,12.7-18.2
		c1.2,0.4,1.6,1.4,1.6,2.1c0,2.5-10.5,14.9-13.8,19.6c-3.9,5.4-4.8,7-4.6,8.3c2.7,0,8.5-5.4,10.6-8c0.1,0.1,0.2,0.2,0.2,0.3
		c0,1.1-7.8,8.6-10.6,8.6C154.6,35.2,154.2,35.1,153.8,34.7z M153,29.7c1.2-1.2,2.3-2.2,3.3-3.5l0.1-0.2c0.2-0.3,0.4-0.6,0.7-0.9
		c0.7-1,1.2-2.1,1.2-3.2c0-0.4-0.1-0.6-0.2-0.9c-2.8,0.4-12.1,9-12.5,12.8c0.1,0.3,0.3,0.4,0.7,0.4C147.4,34.3,150.6,32.1,153,29.7z
		"/>
	<path fill="#66473D" d="M202.2,37.8c0-5.9,6.3-13.1,6.3-15.1c0-0.3-0.1-0.7-0.1-0.9c-1.8-0.1-2.8-0.3-3.7-0.9
		c0.2-0.6,0.6-1.2,1.1-1.4c0.9-0.1,2,0.2,2.6,0.8c2.8-0.5,9.6-5.4,9.6-12.2c0-1.4-0.4-2.6-1.3-3.5c-0.8,0.6-1.6,1.3-2.5,2.2
		c-4.6,4.5-12.7,16.9-18.9,23.1c-4.6,4.6-9.3,7.6-14.5,7.6c-4.2,0-8.3-2.1-8.3-8c0-10,18.9-27.8,38-27.8c2.3,0,4.3,0.4,5.9,1.4
		c1.3-0.6,2.4-0.9,3.3-0.9s1.1,0.3,0.9,0.7c-0.8,0-1.8,0.3-3.1,1.1c1.4,1.4,2.2,3.4,2.2,6.1c0,6.3-6.1,11.7-10.3,11.7
		c0.1,0.3,0.2,0.8,0.2,1.3c0,2.9-3.9,9-3.9,15.6c0,1.9,0.6,3.4,1.3,4.2c0.5,0.5,0.8,0.6,1.4,0.6c0.3,0,0.7-0.1,1-0.2
		c0.1,0.1,0.1,0.3-0.1,0.4c-0.3,0.3-1,0.5-1.9,0.5C204.4,44.2,202.2,41.9,202.2,37.8z M192.6,27.6c4.6-4.6,11.2-14.2,16.3-19.1
		c2.4-2.4,4.6-4,6.4-5c-1.3-0.8-3-1.2-5.1-1.2c-18.8,0-37,18.1-37,27.1c0,4.7,3.1,6.3,6.2,6.3C183.1,35.7,186.9,33.3,192.6,27.6z"/>
	<path fill="#66473D" d="M224.1,26.3c0.1,0.1,0.2,0.2,0.2,0.3c0,1.1-7.8,8.6-10.6,8.6c-0.4,0-0.8-0.2-1.2-0.6
		c-0.3-0.3-0.9-1.4-0.9-2.3c0-3.2,3.6-6.3,7.7-12.2c1.3,0.5,1.3,1.4,1.3,2.1c0,2.1-6.7,8.6-6.9,12C216.2,34.3,222,28.9,224.1,26.3z
		 M225.9,14.6c0,1-1.1,2.2-2,2.2c-0.7,0-1.1-0.4-1.1-1.2c0-0.9,1.1-2.2,1.9-2.2C225.5,13.4,225.9,13.9,225.9,14.6z"/>
	<path fill="#66473D" d="M230.1,34.7c-0.5-0.5-0.8-1.2-0.8-1.9c0-0.8,0.2-1.7,0.8-2.7l-0.2,0.2c-2.6,2.5-6,4.9-7.2,4.9
		c-1.4,0-2.3-1.2-2.3-3c0-4.3,8.2-12.3,12.7-12.4c1.9,0.7,2.4,1.5,2.4,2.2c0,0.2,0,0.3-0.1,0.5c4.9-6.4,12.7-16.2,12.7-18.2
		c1.2,0.4,1.6,1.4,1.6,2.1c0,2.5-10.5,14.9-13.8,19.6c-3.9,5.4-4.8,7-4.6,8.3c2.7,0,8.5-5.4,10.6-8c0.1,0.1,0.2,0.2,0.2,0.3
		c0,1.1-7.8,8.6-10.6,8.6C230.9,35.2,230.5,35.1,230.1,34.7z M229.3,29.7c1.2-1.2,2.3-2.2,3.3-3.5l0.1-0.2c0.2-0.3,0.4-0.6,0.7-0.9
		c0.7-1,1.2-2.1,1.2-3.2c0-0.4-0.1-0.6-0.2-0.9c-2.8,0.4-12.1,9-12.5,12.8c0.1,0.3,0.3,0.4,0.7,0.4
		C223.7,34.3,226.9,32.1,229.3,29.7z"/>
	<path fill="#66473D" d="M224.5,48.4c0-1.6,0.5-2.6,1.8-3.9c0.6-0.6,1.7-1.2,2.2-1.2c0.6,0,0.9,0.2,0.9,0.4c0,0.3-0.3,0.7-0.5,0.8
		c-0.9,0.9-2.6,3.7-2.6,4.8c0.3,1.5,0.8,1.9,2.1,1.9c3.8,0,11.6-9.4,16.2-16c1.7-2.4,3.1-4.5,4.2-6.1l-1.2,1.2
		c-2.8,2.8-5.6,4.9-6.9,4.9c-1.5,0-2.5-1.4-2.5-3.4c0-4.1,8.1-12,12.7-12.1c1.9,0.7,2.4,1.5,2.4,2.2c0,0.2,0,0.5-0.1,0.7
		c0.7-1.1,1-1.7,1.2-2.1c1.4,0.5,1.4,1.4,1.4,2.1c0,1.1-1.3,2.5-10.9,16.4c-3.4,4.9-10.5,13.4-15.9,13.4
		C226.1,52.4,224.5,50.1,224.5,48.4z M252.3,21.1c-3.1,0.4-12.2,9-12.4,12.8c0.1,0.2,0.4,0.4,0.8,0.4c1.1,0,3.8-1.8,6.5-4.4
		c1.1-1.1,2.3-2.3,3.3-3.5c1.1-1.3,2.1-2.9,2.1-4.4C252.6,21.5,252.5,21.3,252.3,21.1z"/>
	<path fill="#66473D" d="M257.3,35.2c-1.8,0-2.8-0.8-2.8-3.3c0-4.6,7-12.2,11.7-12.3c1.6,0.6,2.2,1,2.2,2.2c0,0.9-0.9,2-1.9,3
		c-1.8,1.8-4.6,3.2-6.5,3.2c-0.4,0-0.7,0-0.9-0.1c-1.6,2.2-2.8,4.4-2.9,6c0.1,0.2,0.4,0.3,1.1,0.3c2.5,0,7.3-2.5,10.5-5.7
		c0.9-0.9,1.6-1.7,2.1-2.3c0.1,0.1,0.2,0.2,0.2,0.3c0,0.4-1,1.6-2.5,3.1C264.4,32.7,259.5,35.2,257.3,35.2z M265.8,24.5
		c1.1-1.1,1.8-2.1,1.8-2.7c0-0.5-0.1-0.7-0.2-0.8c-1.9,0.2-5.3,3.1-7.8,6.4h0.4C261.5,27.4,264.2,26,265.8,24.5z"/>
</g>
</svg>
