<?xml version="1.0" encoding="utf-8"?>
<!-- Generator: Adobe Illustrator 18.0.0, SVG Export Plug-In . SVG Version: 6.00 Build 0)  -->
<!DOCTYPE svg PUBLIC "-//W3C//DTD SVG 1.1//EN" "http://www.w3.org/Graphics/SVG/1.1/DTD/svg11.dtd">
<svg version="1.1" id="Layer_1" xmlns="http://www.w3.org/2000/svg" xmlns:xlink="http://www.w3.org/1999/xlink" x="0px" y="0px"
	 viewBox="0 0 80 100" enable-background="new 0 0 80 100" xml:space="preserve">
<g>
	<path fill="#F2EEE7" d="M8.2,77.5c-1.7-1.5-2.5-4.1-2.5-7.1c0-2.4,0.8-5.4,2.5-8.9c-1.4-2.3-2.1-5.2-2.1-8.5
		c0-11.2,9.5-23.7,21.3-33.6c-0.4-1.1-0.6-2.3-0.6-3.4c0-6.4,6.4-11.8,11.3-12.9c0,0.5-0.2,0.8-0.4,1c-0.7,0.7-2.5,1.4-4.9,3.8
		c-2.5,2.5-4.1,5.5-4.1,8.3c0,0.6,0.1,1.4,0.2,2C41.2,8.1,55.5,1,63.9,1c4,0,6.4,2.1,6.4,5.7c0,10.2-14.8,20.5-27.7,20.5
		c-5.3,0-9.2-1.3-11.8-3.2C19.1,33.9,8.9,45.7,8.9,55.1c0,1.6,0.2,2.9,0.5,4.1c2-3.5,4.9-7.4,8.6-11.1c4.3-4.3,13.3-10.9,20.7-10.9
		c5.2,0,7.5,2.7,7.5,7.6c0,9.6-13.8,22.5-27.4,22.5c-2.7,0-5.1-0.7-7-1.9c-0.7,2.4-1,4.3-1,5c0,3.4,0.8,5.9,1.9,7
		c0.7,0.7,1.3,0.8,2.8,0.3c0.1,0.2,0.1,0.4-0.2,0.7C14.4,79.6,10.6,79.7,8.2,77.5z M43.9,44c0-2.5-0.5-5.5-4.5-5.5
		c-5.7,0-11.8,4.6-17.6,10.3c-4.9,4.9-7.8,10.4-9.3,14.7c1.5,1,3.3,1.4,5,1.4C29.7,64.9,43.9,52.6,43.9,44z M68.7,6.7
		c0-2.1-0.9-4-3.1-4c-4.4,0-19.8,8.8-33.4,20.1c2.2,1.7,5.7,2.7,10.6,2.7C53.5,25.6,68.7,15.2,68.7,6.7z"/>
	<path fill="#F2EEE7" d="M52.2,88.9c-0.7-9.9,9-22.5,8.7-26c0-0.6-0.2-1.1-0.3-1.5c-3,0.1-4.8-0.2-6.3-1.1c0.2-0.9,0.9-2.1,1.6-2.5
		c1.6-0.2,3.4,0.1,4.5,1.1c4.6-1.2,15.3-10.2,14.4-21.5c-0.2-2.3-1.1-4.3-2.6-5.7c-1.2,1-2.5,2.3-3.9,3.9
		c-7.1,8-19.1,29.8-28.8,40.8C32.4,84.5,25,90.1,16.3,90.8c-7,0.5-14.1-2.5-14.8-12.3c-1.2-16.7,28.1-48.6,60-50.9
		c3.9-0.3,7.3,0.2,10,1.7c2.1-1.2,3.9-1.8,5.4-1.9c1.5-0.1,1.8,0.4,1.6,1c-1.3,0.1-2.9,0.7-5,2.2c2.6,2.1,4.1,5.4,4.5,10
		c0.8,10.5-8.8,20.3-15.7,20.8c0.2,0.5,0.4,1.3,0.4,2.2c0.4,4.8-5.4,15.4-4.6,26.4c0.2,3.1,1.3,5.7,2.6,6.8c0.9,0.8,1.4,0.9,2.4,0.8
		c0.5,0,1.2-0.2,1.6-0.4c0.1,0.2,0.1,0.5-0.1,0.8c-0.4,0.5-1.6,1-3.1,1.1C56.7,99.3,52.7,95.7,52.2,88.9z M35.1,73.2
		c7.1-8.3,17-25,24.9-33.9c3.7-4.3,7.1-7.2,10.1-9.2c-2.2-1.1-5.2-1.7-8.7-1.4C30.1,31,2,63.4,3.1,78.4c0.6,7.8,5.9,10.1,11.2,9.8
		C20.3,87.7,26.3,83.4,35.1,73.2z"/>
</g>
</svg>
