<?xml version="1.0" encoding="utf-8"?>
<!-- Generator: Adobe Illustrator 18.1.1, SVG Export Plug-In . SVG Version: 6.00 Build 0)  -->
<!DOCTYPE svg PUBLIC "-//W3C//DTD SVG 1.1//EN" "http://www.w3.org/Graphics/SVG/1.1/DTD/svg11.dtd">
<svg version="1.1" id="Layer_1" xmlns="http://www.w3.org/2000/svg" xmlns:xlink="http://www.w3.org/1999/xlink" x="0px" y="0px"
	 viewBox="0 0 30 150" enable-background="new 0 0 30 150" xml:space="preserve">
<g>
	<circle fill="#66483E" cx="15" cy="102" r="1.6"/>
	<circle fill="#66483E" cx="15" cy="97.9" r="1.9"/>
	<path fill="#66483E" d="M20,98.1c-1.1,0-1.9,0.9-1.9,1.9c0,0.7,0.3,1.2,0.8,1.6c-1,1.1-2.5,3.2-3.5,7v-4.3h-0.7v4.3
		c-0.9-3.9-2.5-5.9-3.5-7c0.5-0.3,0.8-0.9,0.8-1.6c0-1.1-0.9-1.9-1.9-1.9c-1.1,0-1.9,0.9-1.9,1.9c0,1.1,0.9,1.9,1.9,1.9
		c0.1,0,0.3,0,0.4,0c1.3,1.4,3.8,4.6,4.2,12c0,0,0,0,0,0h0c0,0,0,0,0,0l0.5,0l0.3,0c0,0,0,0,0,0l0,0v0c0.4-7.4,2.9-10.6,4.2-12
		c0.1,0,0.2,0,0.4,0c1.1,0,1.9-0.9,1.9-1.9C21.9,99,21,98.1,20,98.1z"/>
</g>
<path fill="#66483E" d="M16.2,23h-3.3v-8h-1.7v-2.8h1.7v-1.7c0-2.2,0.9-3.6,3.6-3.6h2.2v2.8h-1.4c-1,0-1.1,0.4-1.1,1.1l0,1.4h2.5
	L18.4,15h-2.2V23z"/>
<path fill="#66483E" d="M13.6,76.9c0.1-0.6,0.1-1.3,0.2-1.9c0-0.1,0-0.2,0.1-0.3c0.2-0.3,0.3-0.5,0.4-0.8c0.3-0.5,0.5-0.9,0.7-1.4
	c0.4-0.7,0.7-1.5,0.9-2.3c0.3-0.9,0.5-1.9,0.5-2.8c0-0.7,0-1.3-0.2-2c-0.1-0.4-0.4-0.7-0.8-0.8c-0.1,0-0.1,0-0.2-0.1H15
	c0,0,0,0-0.1,0c-0.3,0.1-0.6,0.3-0.8,0.6c-0.2,0.2-0.3,0.5-0.4,0.8c-0.2,0.6-0.4,1.3-0.5,1.9c-0.1,0.8-0.2,1.6-0.3,2.4
	c-0.1,0.6-0.1,1.2-0.2,1.8c-0.1,0.7-0.1,1.4-0.2,2.1c0,0.1,0,0.3-0.1,0.4c-0.2,0.3-0.4,0.6-0.6,0.9c-0.2,0.3-0.4,0.7-0.7,1
	c-0.3,0.4-0.5,0.7-0.8,1.1c-0.2,0.2-0.2,0.4-0.2,0.7c0.1,0.2,0.2,0.4,0.5,0.4c0.2,0.1,0.4,0,0.6-0.2c0.2-0.2,0.4-0.4,0.5-0.7
	c0.2-0.2,0.3-0.4,0.5-0.7c0,0.6-0.1,1.2-0.1,1.7c0,0.4-0.1,0.8-0.1,1.2c0,0.6-0.1,1.2-0.1,1.8c0,0.5-0.1,0.9-0.1,1.4
	c0,0.6-0.1,1.1-0.1,1.7c0,0.3,0.2,0.6,0.6,0.6c0.4,0,0.7-0.2,0.7-0.6c0.1-0.7,0.1-1.4,0.2-2.1c0-0.5,0.1-1,0.1-1.6c0,0,0-0.1,0-0.1
	c0,0,0.1,0,0.1,0c0.2,0.3,0.4,0.5,0.6,0.8c0.7,0.8,1.4,1.4,2.3,1.8c0.6,0.2,1.1,0.4,1.8,0.4c0.6,0,1.1-0.3,1.6-0.6l0,0
	c0.2-0.1,0.3-0.4,0.2-0.6c0-0.3-0.2-0.5-0.4-0.7c-0.1-0.1-0.3-0.1-0.4,0.1c0,0,0,0,0,0c-0.4,0.4-0.8,0.6-1.3,0.5
	c-0.7,0-1.2-0.3-1.8-0.7c-0.5-0.3-0.9-0.8-1.2-1.2c-0.3-0.4-0.6-0.8-0.9-1.3c0-0.1-0.1-0.1,0.1-0.2c0.5-0.2,0.9-0.4,1.3-0.7
	c0.6-0.3,1.1-0.7,1.6-1.1c0.8-0.6,1.4-1.3,2-2.1c0.2-0.3,0.2-0.7-0.1-0.9c-0.3-0.2-0.7-0.2-0.9,0.1c-0.2,0.3-0.5,0.7-0.8,1
	c-0.3,0.4-0.7,0.7-1.1,1c-0.7,0.6-1.4,1-2.2,1.4c-0.1,0.1-0.2,0.1-0.2-0.1C13.5,77.8,13.6,76.9,13.6,76.9z M15,66.1
	c0.1,0.1,0.1,0.2,0.1,0.3c0.1,0.7,0,1.4-0.2,2c-0.2,0.9-0.4,1.7-0.7,2.5c0,0,0,0.1-0.1,0.1C14.4,69.4,14.4,67.8,15,66.1z"/>
<polygon fill="#66483E" points="23,43.8 16.2,43.8 16.2,37 13.8,37 13.8,43.8 7,43.8 7,46.2 13.8,46.2 13.8,53 16.2,53 16.2,46.2 
	23,46.2 "/>
<g>
	<path fill="#66483E" d="M15.6,133.2c1.1-2.8,2.1-5.6,3.5-6.6l0.9,0.4c-0.8,4-1.4,8-1.4,10.9c0,2.7,0.5,4.4,2,4.4
		c0.7,0,1.2-0.4,1.5-1.2l1.1,0.4c-0.5,1.2-1.3,1.8-2.4,1.8c-2.5,0-3.4-2.1-3.4-5.4c0-0.3,0-0.6,0-1c0-1.2-0.5-2-1.2-2.6
		c-1.3,3.3-3,6.4-6.4,6.4c-3.1,0-4.6-2.4-4.6-4.8c0-2.7,1.8-5.5,5.1-5.5c1.8,0,2.9,0.9,3.3,2.1C14.2,132.7,14.9,132.9,15.6,133.2z
		 M12.3,132.7c-0.3-0.9-1.1-1.6-2.2-1.6c-2.5,0-3.9,2.6-3.9,4.9c0,2.1,1.1,4.1,3.5,4.1c2.7,0,4.3-3.1,5.6-6.3
		c-0.5-0.2-1.1-0.4-1.7-0.4c0,0.1,0,0.2,0,0.3c0,1.5-0.9,3-2.5,3.5l-0.4-1c1.1-0.4,1.7-1.5,1.7-2.6c0-0.1,0-0.1,0-0.2
		c-1.5,0.3-2.9,1.2-3.2,2.6l-1.1-0.3C8.5,134.1,10.3,133,12.3,132.7z M18.6,127.9c-0.9,1.4-1.5,3.7-2.3,5.9c0.5,0.4,0.8,0.8,1.1,1.4
		C17.6,132.9,18.1,130.5,18.6,127.9L18.6,127.9z"/>
</g>
</svg>
